<svg width="800" height="600" viewBox="0 0 800 600" fill="none" xmlns="http://www.w3.org/2000/svg">
  <!-- Background Elements -->
  <circle cx="400" cy="300" r="250" fill="url(#gradient1)" opacity="0.1"/>
  <circle cx="400" cy="300" r="200" fill="url(#gradient2)" opacity="0.15"/>
  
  <!-- Main Illustration Elements -->
  <rect x="250" y="150" width="300" height="400" rx="20" fill="#F3F4F6" stroke="#E5E7EB" stroke-width="2"/>
  
  <!-- Profile Card Elements -->
  <circle cx="400" cy="250" r="50" fill="#8B5CF6"/>
  <rect x="280" y="320" width="240" height="20" rx="10" fill="#E5E7EB"/>
  <rect x="320" y="360" width="160" height="15" rx="7.5" fill="#E5E7EB"/>
  
  <!-- Job Cards -->
  <rect x="280" y="400" width="240" height="60" rx="10" fill="white" stroke="#E5E7EB" stroke-width="2"/>
  <rect x="300" y="420" width="100" height="10" rx="5" fill="#8B5CF6"/>
  <rect x="300" y="440" width="60" height="8" rx="4" fill="#E5E7EB"/>
  
  <rect x="280" y="470" width="240" height="60" rx="10" fill="white" stroke="#E5E7EB" stroke-width="2"/>
  <rect x="300" y="490" width="100" height="10" rx="5" fill="#8B5CF6"/>
  <rect x="300" y="510" width="60" height="8" rx="4" fill="#E5E7EB"/>
  
  <!-- Decorative Elements -->
  <circle cx="600" cy="200" r="30" fill="url(#gradient3)" opacity="0.6"/>
  <circle cx="200" cy="400" r="40" fill="url(#gradient4)" opacity="0.6"/>
  
  <!-- Gradients -->
  <defs>
    <linearGradient id="gradient1" x1="0" y1="0" x2="800" y2="600" gradientUnits="userSpaceOnUse">
      <stop offset="0%" stop-color="#8B5CF6"/>
      <stop offset="100%" stop-color="#3B82F6"/>
    </linearGradient>
    
    <linearGradient id="gradient2" x1="800" y1="0" x2="0" y2="600" gradientUnits="userSpaceOnUse">
      <stop offset="0%" stop-color="#8B5CF6"/>
      <stop offset="100%" stop-color="#3B82F6"/>
    </linearGradient>
    
    <linearGradient id="gradient3" x1="570" y1="170" x2="630" y2="230" gradientUnits="userSpaceOnUse">
      <stop offset="0%" stop-color="#8B5CF6"/>
      <stop offset="100%" stop-color="#3B82F6"/>
    </linearGradient>
    
    <linearGradient id="gradient4" x1="160" y1="360" x2="240" y2="440" gradientUnits="userSpaceOnUse">
      <stop offset="0%" stop-color="#8B5CF6"/>
      <stop offset="100%" stop-color="#3B82F6"/>
    </linearGradient>
  </defs>
</svg>